<svg width="25" height="25" viewBox="0 0 25 25" fill="none" xmlns="http://www.w3.org/2000/svg">
<path fill-rule="evenodd" clip-rule="evenodd" d="M22.9166 15.625V18.75C22.9166 20.7146 22.9166 21.6958 22.3062 22.3063C21.6958 22.9167 20.7145 22.9167 18.7499 22.9167C16.7853 22.9167 15.8041 22.9167 15.1937 22.3063C14.5833 21.6958 14.5833 20.7146 14.5833 18.75V15.625C14.5833 13.6604 14.5833 12.6792 15.1937 12.0688C15.8041 11.4583 16.7853 11.4583 18.7499 11.4583C20.7145 11.4583 21.6958 11.4583 22.3062 12.0688C22.9166 12.6792 22.9166 13.6604 22.9166 15.625ZM16.927 20.8333C16.927 20.6261 17.0093 20.4274 17.1558 20.2809C17.3023 20.1344 17.5011 20.0521 17.7083 20.0521H19.7916C19.9988 20.0521 20.1975 20.1344 20.344 20.2809C20.4905 20.4274 20.5728 20.6261 20.5728 20.8333C20.5728 21.0405 20.4905 21.2393 20.344 21.3858C20.1975 21.5323 19.9988 21.6146 19.7916 21.6146H17.7083C17.5011 21.6146 17.3023 21.5323 17.1558 21.3858C17.0093 21.2393 16.927 21.0405 16.927 20.8333Z" fill="black"/>
<path d="M8.33325 17.7084C5.38638 17.7084 3.91346 17.7084 2.99784 16.7927C2.40513 16.2 2.15721 15.3729 2.08325 14.0625V13.5417H13.0374V14.0625C13.0208 14.5177 13.0208 15.0125 13.0208 15.5313V18.8438C13.0208 19.7448 13.0208 20.5719 13.1103 21.2438C13.2103 21.9844 13.4437 22.7677 14.0885 23.4104L14.1145 23.4375H8.33325C8.12605 23.4375 7.92734 23.3552 7.78082 23.2087C7.63431 23.0622 7.552 22.8635 7.552 22.6563C7.552 22.4491 7.63431 22.2504 7.78082 22.1038C7.92734 21.9573 8.12605 21.875 8.33325 21.875H11.7187V17.7084H8.33325Z" fill="black"/>
<path opacity="0.5" d="M10.4167 2.08334H14.5833C18.5114 2.08334 20.476 2.08334 21.6958 3.30418C22.9167 4.52397 22.9167 6.48855 22.9167 10.4167V10.5604C22.3875 10.2136 21.8031 10.0604 21.2437 9.98647C20.5729 9.89584 19.7448 9.89584 18.8437 9.89584H18.6562C17.7552 9.89584 16.9281 9.89584 16.2562 9.98647C15.5156 10.0854 14.7323 10.3198 14.0896 10.9636C13.4771 11.5761 13.2354 12.3136 13.1271 13.0208V13.5417H2.08332V13.0208C2.07603 12.5521 2.08332 12.0333 2.08332 11.4583V10.4167C2.08332 6.48855 2.08332 4.52397 3.30415 3.30418C4.52394 2.08334 6.48853 2.08334 10.4167 2.08334Z" fill="black"/>
</svg>
