<svg width="30" height="30" viewBox="0 0 30 30" fill="none" xmlns="http://www.w3.org/2000/svg">
<path d="M3.75 5C2.375 5 1.25 6.125 1.25 7.5V21.25H3.75C3.75 23.375 5.375 25 7.5 25C9.625 25 11.25 23.375 11.25 21.25H18.75C18.75 23.375 20.375 25 22.5 25C24.625 25 26.25 23.375 26.25 21.25H28.75V15L25 10H21.25V5H3.75ZM10 7.5H12.5V12.5H10V7.5ZM21.25 11.875H24.375L26.875 15H21.25V11.875ZM10 15H12.5V17.5H10V15ZM7.5 19.375C8.5 19.375 9.375 20.25 9.375 21.25C9.375 22.25 8.5 23.125 7.5 23.125C6.5 23.125 5.625 22.25 5.625 21.25C5.625 20.25 6.5 19.375 7.5 19.375ZM22.5 19.375C23.5 19.375 24.375 20.25 24.375 21.25C24.375 22.25 23.5 23.125 22.5 23.125C21.5 23.125 20.625 22.25 20.625 21.25C20.625 20.25 21.5 19.375 22.5 19.375Z" fill="black"/>
</svg>
