<svg width="30" height="30" viewBox="0 0 30 30" fill="none" xmlns="http://www.w3.org/2000/svg">
<path d="M25 10H21.25V7.5C21.25 6.125 20.125 5 18.75 5H11.25C9.875 5 8.75 6.125 8.75 7.5V10H5C3.625 10 2.5 11.125 2.5 12.5V25H27.5V12.5C27.5 11.125 26.375 10 25 10ZM11.25 7.5H18.75V10H11.25V7.5ZM25 22.5H5V18.75H7.5V20H10V18.75H20V20H22.5V18.75H25V22.5ZM25 16.25H22.5V15H20V16.25H10V15H7.5V16.25H5V12.5H25V16.25Z" fill="black"/>
<path opacity="0.3" d="M22.5 20H20V18.75H10V20H7.5V18.75H5V22.5H25V18.75H22.5V20ZM5 12.5V16.25H7.5V15H10V16.25H20V15H22.5V16.25H25V12.5H8.75H5Z" fill="black"/>
</svg>
