<svg width="24" height="24" viewBox="0 0 24 24" fill="none" xmlns="http://www.w3.org/2000/svg">
<g clip-path="url(#clip0_428_201)">
<path d="M8.14286 21.4286L11.7143 25L15.2857 21.4286H20.0476C21.3571 21.4286 22.4286 20.3571 22.4286 19.0476V2.38095C22.4286 1.07143 21.3571 0 20.0476 0H3.38095C2.74948 0 2.14388 0.25085 1.69736 0.697365C1.25085 1.14388 1 1.74948 1 2.38095V19.0476C1 19.6791 1.25085 20.2847 1.69736 20.7312C2.14388 21.1777 2.74948 21.4286 3.38095 21.4286H8.14286ZM3.38095 2.38095H20.0476V19.0476H14.2976L13.5952 19.75L11.7143 21.631L9.82143 19.7381L9.13095 19.0476H3.38095V2.38095ZM11.7143 10.7143C13.6786 10.7143 15.2857 9.10714 15.2857 7.14286C15.2857 5.17857 13.6786 3.57143 11.7143 3.57143C9.75 3.57143 8.14286 5.17857 8.14286 7.14286C8.14286 9.10714 9.75 10.7143 11.7143 10.7143ZM11.7143 5.95238C12.369 5.95238 12.9048 6.4881 12.9048 7.14286C12.9048 7.79762 12.369 8.33333 11.7143 8.33333C11.0595 8.33333 10.5238 7.79762 10.5238 7.14286C10.5238 6.4881 11.0595 5.95238 11.7143 5.95238ZM18.8571 16.1667C18.8571 13.1905 14.131 11.9048 11.7143 11.9048C9.29762 11.9048 4.57143 13.1905 4.57143 16.1667V17.8571H18.8571V16.1667ZM7.52381 15.4762C8.40476 14.869 10.1786 14.2857 11.7143 14.2857C13.25 14.2857 15.0238 14.869 15.9048 15.4762H7.52381Z" fill="black"/>
<path opacity="0.3" d="M8.865 19.316L9.58143 20.0458L11.5 22L13.4307 20.0334L14.135 19.316H20V2H3V19.316H8.865ZM11.5 3.23686C13.5036 3.23686 15.1429 4.90662 15.1429 6.94743C15.1429 8.98825 13.5036 10.658 11.5 10.658C9.49643 10.658 7.85714 8.98825 7.85714 6.94743C7.85714 4.90662 9.49643 3.23686 11.5 3.23686ZM4.21429 16.3228C4.21429 13.2307 9.035 11.8949 11.5 11.8949C13.965 11.8949 18.7857 13.2307 18.7857 16.3228V18.0792H4.21429V16.3228Z" fill="black"/>
</g>
<defs>
<clipPath id="clip0_428_201">
<rect width="24" height="24" fill="white"/>
</clipPath>
</defs>
</svg>
