<svg width="25" height="25" viewBox="0 0 25 25" fill="none" xmlns="http://www.w3.org/2000/svg">
<g clip-path="url(#clip0_428_206)">
<path d="M11.6071 19.6429H13.3928M17.8571 8.92857V5.35714M9.82138 8.92857V2.67857H4.46423V8.92857M21.4285 3.125C21.4285 3.41812 21.3708 3.70838 21.2586 3.9792C21.1464 4.25002 20.982 4.49609 20.7747 4.70336C20.5675 4.91063 20.3214 5.07505 20.0506 5.18723C19.7798 5.2994 19.4895 5.35714 19.1964 5.35714H16.5178C15.9258 5.35714 15.3581 5.12197 14.9394 4.70336C14.5208 4.28475 14.2857 3.717 14.2857 3.125C14.2857 2.53299 14.5208 1.96524 14.9394 1.54663C15.3581 1.12802 15.9258 0.892853 16.5178 0.892853H19.1964C19.4895 0.892853 19.7798 0.950589 20.0506 1.06276C20.3214 1.17494 20.5675 1.33936 20.7747 1.54663C20.982 1.75391 21.1464 1.99998 21.2586 2.27079C21.3708 2.54161 21.4285 2.83187 21.4285 3.125Z" stroke="black" stroke-width="2" stroke-linecap="round" stroke-linejoin="round"/>
<path d="M22.3214 15.1786H2.67854C1.69231 15.1786 0.892822 15.978 0.892822 16.9643V22.3214C0.892822 23.3076 1.69231 24.1071 2.67854 24.1071H22.3214C23.3076 24.1071 24.1071 23.3076 24.1071 22.3214V16.9643C24.1071 15.978 23.3076 15.1786 22.3214 15.1786Z" stroke="black" stroke-width="2" stroke-linecap="round" stroke-linejoin="round"/>
<path d="M22.3214 15.1786V10.7143C22.3214 10.2407 22.1333 9.78648 21.7984 9.4516C21.4635 9.11671 21.0093 8.92857 20.5357 8.92857H4.4643C3.9907 8.92857 3.5365 9.11671 3.20161 9.4516C2.86673 9.78648 2.67859 10.2407 2.67859 10.7143V15.1786" stroke="black" stroke-width="2" stroke-linecap="round" stroke-linejoin="round"/>
</g>
<defs>
<clipPath id="clip0_428_206">
<rect width="25" height="25" fill="white"/>
</clipPath>
</defs>
</svg>
