<svg width="40" height="40" viewBox="0 0 40 40" fill="none" xmlns="http://www.w3.org/2000/svg">
<path d="M23.4667 25.9833L27.7833 21.6667H11.6667V18.3333H27.7833L23.4667 14.0167L25.8333 11.6667L34.1667 20L25.8333 28.3333L23.4667 25.9833ZM31.6667 5C32.5507 5 33.3986 5.35119 34.0237 5.97631C34.6488 6.60143 35 7.44928 35 8.33333V16.1167L31.6667 12.7833V8.33333H8.33333V31.6667H31.6667V27.2167L35 23.8833V31.6667C35 32.5507 34.6488 33.3986 34.0237 34.0237C33.3986 34.6488 32.5507 35 31.6667 35H8.33333C7.44928 35 6.60143 34.6488 5.97631 34.0237C5.35119 33.3986 5 32.5507 5 31.6667V8.33333C5 6.48333 6.48333 5 8.33333 5H31.6667Z" fill="#06BCC1"/>
</svg>
