<svg width="40" height="40" viewBox="0 0 40 40" fill="none" xmlns="http://www.w3.org/2000/svg">
<path fill-rule="evenodd" clip-rule="evenodd" d="M36.6668 25V30C36.6668 33.1433 36.6668 34.7133 35.6902 35.69C34.7135 36.6666 33.1435 36.6666 30.0002 36.6666C26.8568 36.6666 25.2868 36.6666 24.3102 35.69C23.3335 34.7133 23.3335 33.1433 23.3335 30V25C23.3335 21.8566 23.3335 20.2866 24.3102 19.31C25.2868 18.3333 26.8568 18.3333 30.0002 18.3333C33.1435 18.3333 34.7135 18.3333 35.6902 19.31C36.6668 20.2866 36.6668 21.8566 36.6668 25ZM27.0835 33.3333C27.0835 33.0018 27.2152 32.6838 27.4496 32.4494C27.684 32.215 28.002 32.0833 28.3335 32.0833H31.6668C31.9984 32.0833 32.3163 32.215 32.5507 32.4494C32.7851 32.6838 32.9168 33.0018 32.9168 33.3333C32.9168 33.6648 32.7851 33.9828 32.5507 34.2172C32.3163 34.4516 31.9984 34.5833 31.6668 34.5833H28.3335C28.002 34.5833 27.684 34.4516 27.4496 34.2172C27.2152 33.9828 27.0835 33.6648 27.0835 33.3333Z" fill="#06BCC1"/>
<path d="M13.3335 28.3333C8.6185 28.3333 6.26183 28.3333 4.79683 26.8683C3.8485 25.92 3.45183 24.5966 3.3335 22.5V21.6666H20.8602V22.5C20.8335 23.2283 20.8335 24.02 20.8335 24.85V30.15C20.8335 31.5916 20.8335 32.915 20.9768 33.99C21.1368 35.175 21.5102 36.4283 22.5418 37.4566L22.5835 37.5H13.3335C13.002 37.5 12.684 37.3683 12.4496 37.1338C12.2152 36.8994 12.0835 36.5815 12.0835 36.25C12.0835 35.9184 12.2152 35.6005 12.4496 35.3661C12.684 35.1317 13.002 35 13.3335 35H18.7502V28.3333H13.3335Z" fill="#06BCC1"/>
<path opacity="0.5" d="M16.6666 3.33331H23.3333C29.6183 3.33331 32.7616 3.33331 34.7133 5.28665C36.6666 7.23831 36.6666 10.3816 36.6666 16.6666V16.8966C35.82 16.3416 34.885 16.0966 33.99 15.9783C32.9166 15.8333 31.5916 15.8333 30.15 15.8333H29.85C28.4083 15.8333 27.085 15.8333 26.01 15.9783C24.825 16.1366 23.5716 16.5116 22.5433 17.5416C21.5633 18.5216 21.1766 19.7016 21.0033 20.8333V21.6666H3.33331V20.8333C3.32164 20.0833 3.33331 19.2533 3.33331 18.3333V16.6666C3.33331 10.3816 3.33331 7.23831 5.28664 5.28665C7.23831 3.33331 10.3816 3.33331 16.6666 3.33331Z" fill="#06BCC1"/>
</svg>
