<svg width="40" height="40" viewBox="0 0 40 40" fill="none" xmlns="http://www.w3.org/2000/svg">
<path d="M34.9999 11.6667H24.9999C24.5579 11.6667 24.134 11.8423 23.8214 12.1548C23.5088 12.4674 23.3333 12.8913 23.3333 13.3333V18.3333H19.9999V6.66667C19.9999 6.22464 19.8243 5.80072 19.5118 5.48816C19.1992 5.17559 18.7753 5 18.3333 5H4.99992C4.55789 5 4.13397 5.17559 3.82141 5.48816C3.50885 5.80072 3.33325 6.22464 3.33325 6.66667V33.3333C3.33325 33.7754 3.50885 34.1993 3.82141 34.5118C4.13397 34.8244 4.55789 35 4.99992 35H34.9999C35.4419 35 35.8659 34.8244 36.1784 34.5118C36.491 34.1993 36.6666 33.7754 36.6666 33.3333V13.3333C36.6666 12.8913 36.491 12.4674 36.1784 12.1548C35.8659 11.8423 35.4419 11.6667 34.9999 11.6667ZM13.3333 10H16.6666V13.3333H13.3333V10ZM9.99992 26.6667H6.66659V23.3333H9.99992V26.6667ZM9.99992 20H6.66659V16.6667H9.99992V20ZM9.99992 13.3333H6.66659V10H9.99992V13.3333ZM16.6666 26.6667H13.3333V23.3333H16.6666V26.6667ZM16.6666 20H13.3333V16.6667H16.6666V20ZM31.6666 26.6667H28.3333V23.3333H31.6666V26.6667ZM31.6666 20H28.3333V16.6667H31.6666V20Z" fill="#06BCC1"/>
</svg>
